<svg height="512pt" viewBox="0 0 512 512" width="512pt" xmlns="http://www.w3.org/2000/svg"><path d="m256 10.035156c-135.84375 0-245.964844 110.121094-245.964844 245.964844 0 54.449219 17.691406 104.761719 47.640625 145.511719l-22.800781 98.589843 103.785156-27.878906c34.875 18.964844 74.847656 29.742188 117.339844 29.742188 135.84375 0 245.964844-110.125 245.964844-245.964844s-110.121094-245.964844-245.964844-245.964844zm0 0" fill="#eff3f3"/><path d="m256 461.820312c-34.308594 0-68.253906-8.597656-98.164062-24.863281l-15.3125-8.328125-55.671876 18.523438 14.648438-53.792969-11.476562-15.621094c-26.066407-35.464843-39.84375-77.5625-39.84375-121.738281 0-113.488281 92.332031-205.820312 205.820312-205.820312s205.820312 92.332031 205.820312 205.820312c0 113.492188-92.332031 205.820312-205.820312 205.820312zm0 0" fill="#aae2c9"/><path d="m310.320312 288.648438-14.984374 14.984374c-1.285157-.699218-2.667969-1.394531-4.066407-2.179687-12.863281-7.132813-28.75-15.132813-47.273437-33.660156-18.566406-18.570313-26.636719-34.464844-33.761719-47.328125-.769531-1.351563-1.085937-2.238282-1.78125-3.5l14.058594-13.214844 1.453125-1.453125c11.140625-11.140625 11.140625-29.199219 0-40.335937l-21.964844-21.964844c-11.199219-11.199219-29.378906-11.128906-40.492188.160156l-5.855468 5.945312c-3.8125 4.875-7.042969 10.546876-9.414063 16.597657-2.1875 5.777343-3.589843 11.304687-4.195312 16.8125-5.347657 44.222656 5.34375 75.136719 60.175781 129.992187 75.816406 75.796875 127.007812 61.027344 129.648438 60.730469 5.730468-.671875 11.625-2.492187 17.222656-4.65625 6-2.347656 11.722656-5.628906 16.574218-9.441406l5.949219-5.851563c11.300781-11.109375 11.378907-29.300781.171875-40.503906l-21.128906-21.128906c-11.136719-11.140625-29.195312-11.140625-40.335938-.003906zm0 0" fill="#eff3f3"/><path d="m207.042969 465.964844c-4.195313 0-8.035157-2.71875-9.449219-6.660156-1.390625-3.886719-.195312-8.359376 2.957031-11.027344 3.296875-2.785156 8.121094-3.132813 11.789063-.867188 3.507812 2.167969 5.351562 6.433594 4.539062 10.472656-.933594 4.636719-5.097656 8.082032-9.835937 8.082032zm0 0"/><path d="m318.105469 381.597656c-24.75 0-68.183594-10.214844-122.984375-64.996094-53.851563-53.875-69.179688-87.472656-63.046875-138.246093.695312-6.285157 2.261719-12.566407 4.78125-19.214844.011719-.035156.023437-.070313.039062-.105469 2.6875-6.863281 6.441407-13.476562 10.855469-19.117187.230469-.300781.484375-.585938.75-.859375l5.855469-5.945313c7.265625-7.382812 16.96875-11.46875 27.324219-11.507812h.15625c10.300781 0 19.972656 4.003906 27.261718 11.289062l21.964844 21.964844c15.035156 15.035156 15.035156 39.496094 0 54.53125l-1.457031 1.457031c-.074219.070313-.148438.144532-.222657.214844l-8.480468 7.96875c6.628906 12.054688 14.230468 25.699219 30.191406 41.667969 16.023438 16.023437 29.746094 23.5625 41.847656 30.214843.199219.109376.398438.21875.59375.324219l9.691406-9.6875c15.035157-15.03125 39.492188-15.03125 54.527344 0l21.128906 21.128907c7.328126 7.328124 11.335938 17.066406 11.292969 27.429687-.042969 10.359375-4.136719 20.066406-11.523437 27.328125l-5.953125 5.851562c-.261719.257813-.542969.503907-.835938.734376-5.671875 4.457031-12.285156 8.226562-19.121093 10.894531-7.289063 2.820312-13.636719 4.535156-19.429688 5.25l-.203125.039062c-3.742187.746094-8.78125 1.390625-15.003906 1.390625zm15.058593-1.410156c-.039062.003906-.082031.007812-.121093.011719.019531 0 .0625-.003907.121093-.011719zm-177.5625-213.878906c-1.90625 5.042968-3.078124 9.71875-3.582031 14.300781-.003906.035156-.011719.070313-.015625.105469-4.703125 38.898437 2.671875 67.03125 57.308594 121.691406 63.449219 63.429688 107.800781 60.515625 119.882812 58.113281.539063-.105469 1.007813-.199219 1.558594-.261719 4.101563-.480468 8.9375-1.808593 14.714844-4.042968 4.828125-1.890625 9.523438-4.53125 13.574219-7.648438l5.535156-5.441406c3.542969-3.480469 5.503906-8.132812 5.523437-13.101562.023438-4.964844-1.902343-9.636719-5.414062-13.148438l-21.128906-21.132812c-7.207032-7.207032-18.933594-7.207032-26.140625 0l-14.988281 14.984374c-3.148438 3.148438-7.992188 3.84375-11.898438 1.71875-.484375-.265624-.984375-.527343-1.492188-.796874-.878906-.460938-1.78125-.9375-2.6875-1.445313-.972656-.542969-2.015624-1.113281-3.078124-1.699219-12.621094-6.933594-28.328126-15.566406-46.378907-33.613281-18.195312-18.203125-26.871093-33.988281-33.847656-46.671875-.53125-.964844-1.054687-1.917969-1.574219-2.851562-.566406-1.003907-.953125-1.816407-1.265625-2.46875-.164062-.34375-.324219-.6875-.542969-1.085938-2.21875-4.015625-1.429687-9.023438 1.910157-12.164062l13.945312-13.105469 1.347657-1.347657c3.492187-3.492187 5.414062-8.132812 5.414062-13.070312s-1.921875-9.578125-5.414062-13.070312l-21.964844-21.964844c-3.511719-3.511719-8.210938-5.394532-13.144532-5.414063-4.964843.019531-9.617187 1.980469-13.101562 5.515625l-5.433594 5.523438c-3.074218 4.023437-5.703125 8.707031-7.621094 13.59375zm0 0"/><path d="m256.902344 471.855469c-.226563 0-1.519532-.011719-2.714844-.019531-.925781-.007813-1.792969-.015626-1.964844-.015626-5.539062-.011718-10.027344-4.507812-10.019531-10.046874.007813-5.539063 4.492187-10.023438 10.027344-10.023438.140625 0 1.089843.003906 2.113281.015625 1.101562.007813 2.292969.015625 2.523438.015625 107.464843-.449219 194.917968-88.277344 194.917968-195.78125 0-107.957031-87.828125-195.785156-195.785156-195.785156s-195.785156 87.828125-195.785156 195.785156c0 42.023438 13.105468 82.0625 37.894531 115.796875l11.480469 15.617187c1.8125 2.46875 2.398437 5.628907 1.59375 8.582032l-9.726563 35.71875 37.898438-12.605469c2.640625-.882813 5.523437-.625 7.964843.703125l19.136719 10.40625c4.867188 2.648438 6.667969 8.742188 4.019531 13.613281-2.648437 4.867188-8.746093 6.667969-13.613281 4.019531l-15.304687-8.324218-51.539063 17.148437c-3.511719 1.167969-7.375.3125-10.066406-2.234375-2.6875-2.542968-3.757813-6.355468-2.785156-9.925781l13.378906-49.117187-8.609375-11.714844c-27.339844-37.203125-41.792969-81.355469-41.792969-127.683594 0-119.023438 96.832031-215.855469 215.855469-215.855469s215.855469 96.832031 215.855469 215.855469c0 118.527344-96.417969 215.355469-214.933594 215.855469-.007813 0-.011719 0-.019531 0zm0 0"/><path d="m256 512c-41.300781 0-82.203125-10.035156-118.566406-29.054688l-99.957032 26.847657c-3.40625.914062-7.042968-.023438-9.574218-2.472657-2.535156-2.445312-3.601563-6.046874-2.808594-9.480468l21.777344-94.152344c-30.679688-43.339844-46.871094-94.300781-46.871094-147.6875 0-68.378906 26.628906-132.667969 74.980469-181.019531 48.351562-48.351563 112.640625-74.980469 181.019531-74.980469s132.667969 26.628906 181.019531 74.980469c48.351563 48.351562 74.980469 112.640625 74.980469 181.019531s-26.628906 132.667969-74.980469 181.019531c-48.351562 48.351563-112.640625 74.980469-181.019531 74.980469zm-117.339844-49.8125c1.660156 0 3.308594.414062 4.792969 1.21875 34.3125 18.660156 73.230469 28.523438 112.546875 28.523438 130.089844 0 235.929688-105.839844 235.929688-235.929688s-105.839844-235.929688-235.929688-235.929688-235.929688 105.839844-235.929688 235.929688c0 50.636719 15.800782 98.898438 45.691407 139.566406 1.734375 2.359375 2.351562 5.355469 1.691406 8.207032l-19.035156 82.296874 87.636719-23.539062c.855468-.230469 1.730468-.34375 2.605468-.34375zm0 0"/></svg>